<svg xmlns="http://www.w3.org/2000/svg" viewBox="0 0 88 88" height="100" width="100"><title>Artboard-40</title><g id="Refresh_Dollar" data-name="Refresh Dollar"><path d="M44,26A18,18,0,1,0,62,44,18.0209,18.0209,0,0,0,44,26Zm8,14a1,1,0,0,1-1,1H47a1,1,0,0,1-1-1V38.8311A.8323.8323,0,0,0,45.1689,38H42.8311a.8311.8311,0,0,0-.4288,1.543l6.2813,3.77A6.8251,6.8251,0,0,1,47,55.7432V58a1,1,0,0,1-1,1H42a1,1,0,0,1-1-1V55.7432a6.7121,6.7121,0,0,1-.9023-.3213A6.8326,6.8326,0,0,1,36,49.1689V48a1,1,0,0,1,1-1h4a1,1,0,0,1,1,1v1.1689A.8323.8323,0,0,0,42.8311,50h2.3378a.8311.8311,0,0,0,.4288-1.543l-6.2813-3.77A6.8616,6.8616,0,0,1,36,38.8311a6.8408,6.8408,0,0,1,5-6.5743V30a1,1,0,0,1,1-1h4a1,1,0,0,1,1,1v2.2568a6.8676,6.8676,0,0,1,5,6.5743Z" style="fill:#202021"/><path d="M45.8574,34.0566a1.0007,1.0007,0,0,1-.8574-.99V31H43v2.0664a1.0007,1.0007,0,0,1-.8584.99A4.8366,4.8366,0,0,0,38,38.8311a4.8526,4.8526,0,0,0,2.3447,4.1416l6.2813,3.7695A2.8307,2.8307,0,0,1,45.1689,52H42.8311A2.8336,2.8336,0,0,1,40,49.1689V49H38v.1689A4.8307,4.8307,0,0,0,40.8994,53.59a4.7746,4.7746,0,0,0,1.2422.3536,1,1,0,0,1,.8584.99V57h2V54.9336a1.0007,1.0007,0,0,1,.8574-.99,4.8256,4.8256,0,0,0,1.7979-8.9161L41.374,41.2578A2.8307,2.8307,0,0,1,42.8311,36h2.3378A2.8336,2.8336,0,0,1,48,38.8311V39h2v-.1689A4.8494,4.8494,0,0,0,45.8574,34.0566Z" style="fill:#202021"/><path d="M44,20A24,24,0,1,0,68,44,24.0275,24.0275,0,0,0,44,20Zm0,44A20,20,0,1,1,64,44,20.0223,20.0223,0,0,1,44,64Z" style="fill:#202021"/><path d="M80.02,26.57a1.0036,1.0036,0,0,0-.9-.57H74.59a1.0117,1.0117,0,0,0-.86.49.9936.9936,0,0,0-.01,1A33.9844,33.9844,0,1,1,65.91,18H61a1.0029,1.0029,0,0,0-1,1v4a1.0029,1.0029,0,0,0,1,1H75a1.0029,1.0029,0,0,0,1-1V9a1.0029,1.0029,0,0,0-1-1H71a1.0029,1.0029,0,0,0-1,1v4.6A39.8575,39.8575,0,1,0,80.02,26.57Z" style="fill:#202021"/></g></svg>